<svg width="31" height="30" viewBox="0 0 31 30" fill="none" xmlns="http://www.w3.org/2000/svg">
<path fill-rule="evenodd" clip-rule="evenodd" d="M14.5189 0C12.3269 0.0916708 10.182 0.665273 8.23685 1.68L14.5189 12.56V0ZM14.5189 17.443L8.23885 28.32C10.1834 29.3344 12.3275 29.908 14.5189 30V17.443ZM15.8239 30V17.432L22.1099 28.319C20.1635 29.3343 18.0172 29.9089 15.8239 30ZM15.8239 12.57V0C18.0849 0.096 20.2169 0.693 22.1109 1.682L15.8239 12.57ZM2.50785 23.067L13.3919 16.783L7.10785 27.667C5.25837 26.4863 3.68858 24.9165 2.50785 23.067ZM27.8379 6.935L16.9579 13.216L23.2409 2.336C25.0895 3.51667 26.6576 5.08609 27.8379 6.935ZM2.50685 6.934C3.6876 5.08454 5.25739 3.51475 7.10685 2.334L13.3909 13.218L2.50685 6.934ZM1.85285 8.064C0.837588 10.0104 0.263972 12.1566 0.172852 14.35H12.7399L1.85285 8.064ZM1.85285 21.937C0.838155 19.9918 0.264555 17.847 0.172852 15.655H12.7349L1.85385 21.937H1.85285ZM17.6069 14.35H30.1719C30.0806 12.157 29.507 10.0111 28.4919 8.065L17.6069 14.35ZM28.4919 21.936L17.6119 15.656H30.1719C30.0799 17.8473 29.5063 19.9915 28.4919 21.936ZM16.9579 16.785L23.2389 27.665C25.0878 26.4844 26.6573 24.915 27.8379 23.066L16.9579 16.785Z" fill="#FAFAFA"/>
</svg>
